<?xml version="1.0" standalone="no"?>
<!DOCTYPE svg PUBLIC "-//W3C//DTD SVG 20010904//EN"
 "http://www.w3.org/TR/2001/REC-SVG-20010904/DTD/svg10.dtd">
<svg version="1.0" xmlns="http://www.w3.org/2000/svg"
 width="1200.000000pt" height="1200.000000pt" viewBox="0 0 1200.000000 1200.000000"
 preserveAspectRatio="xMidYMid meet">
<metadata>
Created by potrace 1.14, written by Peter Selinger 2001-2017
</metadata>
<g transform="translate(0.000000,1200.000000) scale(0.100000,-0.100000)"
fill="#000000" stroke="none">
<path d="M5750 11273 c-30 -2 -109 -10 -175 -18 -587 -74 -1135 -285 -1597
-616 -1072 -768 -1624 -2054 -1438 -3351 52 -369 163 -725 330 -1058 98 -196
114 -223 545 -885 352 -540 824 -1266 1747 -2685 753 -1158 688 -1064 760
-1095 79 -32 176 -9 233 56 17 19 173 255 348 524 314 483 440 677 1207 1855
213 327 417 642 455 699 211 325 597 918 687 1057 136 208 202 320 281 480
185 371 302 778 348 1214 16 148 16 511 0 665 -83 812 -433 1559 -997 2130
-662 669 -1561 1041 -2494 1033 -102 -1 -210 -3 -240 -5z m537 -1008 c507 -66
967 -294 1328 -659 331 -335 541 -742 631 -1223 25 -136 30 -505 10 -663 -67
-509 -251 -879 -636 -1274 -407 -418 -794 -620 -1325 -692 -129 -18 -418 -20
-554 -4 -486 55 -945 270 -1305 611 -383 363 -638 873 -695 1391 -14 124 -14
391 0 516 54 501 251 906 634 1301 471 487 970 706 1612 710 111 1 228 -5 300
-14z"/>
<path d="M5830 10154 c-886 -80 -1623 -672 -1884 -1514 -118 -382 -126 -803
-21 -1203 69 -262 189 -493 382 -732 280 -347 654 -621 1003 -735 767 -252
1603 -64 2174 490 134 130 215 226 311 370 189 283 306 612 345 975 29 266
-12 629 -101 900 -175 529 -725 1101 -1266 1316 -101 40 -308 93 -448 114
-106 16 -402 27 -495 19z m493 -563 c663 -143 1155 -654 1267 -1316 30 -179
25 -442 -13 -615 -47 -213 -100 -340 -216 -511 -213 -315 -538 -574 -844 -673
-178 -57 -274 -70 -512 -71 -193 0 -233 3 -329 23 -611 131 -1090 590 -1240
1187 -35 141 -46 236 -46 398 0 468 153 816 506 1157 266 256 516 383 858 435
136 21 441 13 569 -14z"/>
<path d="M4315 2245 c-487 -124 -791 -296 -887 -501 -26 -56 -31 -79 -31 -140
0 -64 4 -83 37 -148 121 -246 538 -461 1151 -594 399 -87 780 -129 1275 -139
1175 -23 2245 224 2611 604 106 110 149 218 129 325 -38 198 -235 361 -604
498 -119 44 -427 131 -461 130 -5 -1 82 -32 195 -69 521 -173 804 -383 804
-595 -1 -81 -28 -141 -101 -217 -397 -416 -1806 -655 -3143 -534 -695 63
-1288 221 -1591 423 -92 62 -183 156 -211 219 -114 256 206 528 857 728 174
53 175 53 155 54 -8 0 -91 -20 -185 -44z"/>
<path d="M4810 1984 c-320 -67 -512 -175 -536 -299 -40 -217 410 -413 1132
-490 203 -22 609 -33 839 -24 761 33 1354 199 1459 410 31 64 32 89 5 146 -51
106 -240 197 -532 258 -71 15 -130 25 -133 22 -3 -3 19 -10 48 -17 238 -57
487 -175 544 -259 36 -54 32 -93 -16 -145 -284 -308 -1926 -412 -2842 -180
-277 70 -438 166 -438 261 0 32 8 45 58 93 85 82 243 153 532 238 64 19 -4 11
-120 -14z"/>
</g>
</svg>
